<svg xmlns="http://www.w3.org/2000/svg" viewBox="0 0 72 72"><path fill="#03A9F4" d="M60.6 19.4c-.1-2.6-1.7-4.4-4.3-4.8-.3 0-.5 0-.8-.1h-1.2c-1.8.3-3.2 1.2-4.4 2.5l-2.1 2.1c-1.5 1.5-2.9 3-4.4 4.4-1.9 1.8-3.2 1.9-5.2.2-1.1-.9-2.5-1-3.6-.3-1.6 1.1-1.9 3.2-.5 4.7.7.8.8.6 0 1.5L24 39.7c-1.1 1.1-1.7 2.4-1.7 4V46c0 .6-.1 1-.6 1.4-.9.9-1.9 1.8-2.8 2.8-.6.7-1.2 1.5-1.6 2.4-1.1 2.8.9 5.5 3.8 5.3 1.3-.1 2.4-.7 3.3-1.5l3-3c.5-.5.9-.7 1.6-.7.7.1 1.4 0 2.1 0 1.7 0 3.1-.6 4.2-1.8 3.3-3.4 6.7-6.7 10-10 .8-.8.6-.7 1.4 0 .8.8 1.8 1.1 3 .8 2.3-.7 3-3.4 1.2-5.1-1.1-1.1-1.1-2.7-.4-3.8.3-.5.7-1 1.2-1.4 2-2.1 4.1-4.2 6.2-6.2 1.3-1.2 2.3-2.6 2.6-4.4v-1.2c.1 0 .1-.1.1-.2zM44.3 39.3L41 42.6H24.7c.1-.4.4-.8.7-1.2l10.7-10.7c.3-.3.5-.3.8 0l7.6 7.6c.3.5.1.7-.2 1z"/><path fill="none" d="M0 0h72v72H0z"/></svg>