<?xml version="1.0" encoding="utf-8"?>
<!-- Generator: Adobe Illustrator 18.1.1, SVG Export Plug-In . SVG Version: 6.00 Build 0)  -->
<!DOCTYPE svg PUBLIC "-//W3C//DTD SVG 1.1//EN" "http://www.w3.org/Graphics/SVG/1.1/DTD/svg11.dtd">
<svg version="1.1" id="Layer_1" xmlns="http://www.w3.org/2000/svg" xmlns:xlink="http://www.w3.org/1999/xlink" x="0px" y="0px"
	 viewBox="0 0 72 72" enable-background="new 0 0 72 72" xml:space="preserve">
<g>
	<g>
		<path fill="#03A9F4" d="M60.6,19.4c-0.1-2.6-1.7-4.4-4.3-4.8c-0.3,0-0.5,0-0.8-0.1h-1.2c-1.8,0.3-3.2,1.2-4.4,2.5
			c-0.7,0.7-1.4,1.4-2.1,2.1c-1.5,1.5-2.9,3-4.4,4.4c-1.9,1.8-3.2,1.9-5.2,0.2c-1.1-0.9-2.5-1-3.6-0.3c-1.6,1.1-1.9,3.2-0.5,4.7
			c0.7,0.8,0.8,0.6,0,1.5c-3.4,3.4-6.7,6.7-10.1,10.1c-1.1,1.1-1.7,2.4-1.7,4c0,0.8,0,1.5,0,2.3c0,0.6-0.1,1-0.6,1.4
			c-0.9,0.9-1.9,1.8-2.8,2.8c-0.6,0.7-1.2,1.5-1.6,2.4c-1.1,2.8,0.9,5.5,3.8,5.3c1.3-0.1,2.4-0.7,3.3-1.5c1-1,2-2,3-3
			c0.5-0.5,0.9-0.7,1.6-0.7c0.7,0.1,1.4,0,2.1,0c1.7,0,3.1-0.6,4.2-1.8c3.3-3.4,6.7-6.7,10-10c0.8-0.8,0.6-0.7,1.4,0
			c0.8,0.8,1.8,1.1,3,0.8c2.3-0.7,3-3.4,1.2-5.1c-1.1-1.1-1.1-2.7-0.4-3.8c0.3-0.5,0.7-1,1.2-1.4c2-2.1,4.1-4.2,6.2-6.2
			c1.3-1.2,2.3-2.6,2.6-4.4v-1.2C60.6,19.6,60.6,19.5,60.6,19.4z M44.3,39.3c-1.1,1.1-2.2,2.2-3.3,3.3H24.7c0.1-0.4,0.4-0.8,0.7-1.2
			c3.6-3.6,7.1-7.1,10.7-10.7c0.3-0.3,0.5-0.3,0.8,0c2.5,2.5,5.1,5.1,7.6,7.6C44.8,38.8,44.6,39,44.3,39.3z"/>
	</g>
</g>
<rect fill="none" width="72" height="72"/>
<g>
</g>
<g>
</g>
<g>
</g>
<g>
</g>
<g>
</g>
<g>
</g>
<g>
</g>
<g>
</g>
<g>
</g>
<g>
</g>
<g>
</g>
<g>
</g>
<g>
</g>
<g>
</g>
<g>
</g>
</svg>
