<?xml version="1.0" encoding="utf-8"?>
<!-- Generator: Adobe Illustrator 18.1.1, SVG Export Plug-In . SVG Version: 6.00 Build 0)  -->
<!DOCTYPE svg PUBLIC "-//W3C//DTD SVG 1.1//EN" "http://www.w3.org/Graphics/SVG/1.1/DTD/svg11.dtd">
<svg version="1.1" id="Layer_1" xmlns="http://www.w3.org/2000/svg" xmlns:xlink="http://www.w3.org/1999/xlink" x="0px" y="0px"
	 viewBox="0 0 72 72" enable-background="new 0 0 72 72" xml:space="preserve">
<path fill="#FF5722" d="M19.5,52.5c-9.4-9.4-9.4-24.6,0-34c9.4-9.4,24.6-9.4,34,0c9.4,9.4,9.4,24.6,0,34
	C44.1,61.8,28.9,61.8,19.5,52.5z M51.1,26.9l-8.4,7.5L41,32.6l7.9-8.3L47.7,23L39.4,31l-1.6-1.6l7.3-8.6l-1.3-1.3l-8.2,8.2l0,0
	c-2.5,2.7-1.5,4.3-0.5,6.8l0,0l-12,12c0,3,2.7,2.7,2.7,2.7l12-12c0,0,3.9,1.9,6.6-0.7l0,0l8.2-8.2L51.1,26.9z"/>
<rect fill="none" width="72" height="72"/>
<g>
</g>
<g>
</g>
<g>
</g>
<g>
</g>
<g>
</g>
<g>
</g>
<g>
</g>
<g>
</g>
<g>
</g>
<g>
</g>
<g>
</g>
<g>
</g>
<g>
</g>
<g>
</g>
<g>
</g>
</svg>
