<svg xmlns="http://www.w3.org/2000/svg" viewBox="0 0 72 72"><path fill="#FF5722" d="M60.1 28.9c-.1-1.9-2.3-3.2-5.5-4.1l4.8-4.8c.8-.8.8-2.1 0-2.9-.8-.8-2.1-.8-2.9 0l-6.7 6.7c-6.2-1-13.1-1-13.6-1-1 0-23.9.1-23.9 6.1h-.1c0 .3-.1.7-.1 1L15.9 42c0 4.2 5.1 7.7 9.1 7.7h23c4 0 8.5-3.4 8.5-7.7l3.7-12.2c0-.3 0-.6-.1-.9zm-41.2.7c.8-1.1 7-2.8 17.3-2.8 3.6 0 6.7.2 9.2.5l-5 5c-1.3.1-2.7.1-4.2.1-10.4 0-16.6-1.7-17.3-2.8zm26.8 2.2l3.8-3.8c2.3.5 3.7 1.1 4 1.6-.5.7-3.2 1.6-7.8 2.2z"/><path fill="none" d="M0 0h72v72H0z"/></svg>