<?xml version="1.0" encoding="utf-8"?>
<!-- Generator: Adobe Illustrator 18.1.1, SVG Export Plug-In . SVG Version: 6.00 Build 0)  -->
<!DOCTYPE svg PUBLIC "-//W3C//DTD SVG 1.1//EN" "http://www.w3.org/Graphics/SVG/1.1/DTD/svg11.dtd">
<svg version="1.1" id="Layer_1" xmlns="http://www.w3.org/2000/svg" xmlns:xlink="http://www.w3.org/1999/xlink" x="0px" y="0px"
	 viewBox="0 0 72 72" enable-background="new 0 0 72 72" xml:space="preserve">
<g>
	<rect fill="none" width="72" height="72"/>
	<path fill="#FF5722" d="M57.6,18L12.3,34.1c4.5,12.5,18.2,19,30.7,14.6C55.5,44.2,62.1,30.5,57.6,18z M23.9,42
		c-1.8-1.8-3.7-3.5-5.3-5.5c-0.4-0.6-0.2-2.6,0.3-2.8c4.4-1.8,9-3.4,13.5-5c0.2,0.3,0.4,0.5,0.6,0.8c-1.9,4-3.7,8-5.6,11.9
		C26.6,43.1,25.3,43.3,23.9,42z M37.9,45.2c-2.4,0-4.9,0-7.3-0.4c-0.7-0.1-1.8-1.8-1.5-2.3c1.7-4.2,3.7-8.2,5.6-12.3
		c0.3,0,0.6,0.1,1,0.1c1.5,4.1,3,8.1,4.4,12.2C40.7,44.4,39.7,45.2,37.9,45.2z M50.7,37.5c-1.3,1.3-2.9,2.2-4.4,3.2
		c-1,0.9-2,1.7-3,2.6c-0.7-0.9-1.7-1.7-2-2.8c-0.7-2.1-1.1-4.3-1.6-6.4c-0.8-1.5-1.6-2.9-2.4-4.4c0.2-0.3,0.5-0.5,0.7-0.8
		c4.1,2,8.3,3.8,12.3,6C50.8,35.1,51.1,37.1,50.7,37.5z M53.7,31.4c-0.1,0.7-2.1,1.8-2.7,1.5c-4.1-1.7-8-3.7-12-5.5
		c0-0.3,0-0.7-0.1-1c4.4-1.6,8.8-3.3,13.3-4.7c0.5-0.2,2.1,1,2.1,1.5C54.4,25.9,54.2,28.7,53.7,31.4z"/>
</g>
<g>
</g>
<g>
</g>
<g>
</g>
<g>
</g>
<g>
</g>
<g>
</g>
<g>
</g>
<g>
</g>
<g>
</g>
<g>
</g>
<g>
</g>
<g>
</g>
<g>
</g>
<g>
</g>
<g>
</g>
</svg>
