<?xml version="1.0" encoding="utf-8"?>
<!-- Generator: Adobe Illustrator 19.2.0, SVG Export Plug-In . SVG Version: 6.00 Build 0)  -->
<!DOCTYPE svg PUBLIC "-//W3C//DTD SVG 1.1//EN" "http://www.w3.org/Graphics/SVG/1.1/DTD/svg11.dtd">
<svg version="1.1" xmlns="http://www.w3.org/2000/svg" xmlns:xlink="http://www.w3.org/1999/xlink" x="0px" y="0px"
	 viewBox="0 0 72 72" style="enable-background:new 0 0 72 72;" xml:space="preserve">
<style type="text/css">
	.st0{fill:#4CAF50;}
	.st1{fill:none;}
	.st2{fill:#03A9F4;}
	.st3{fill:#FF5722;}
	.st4{fill:none;stroke:#03A9F4;stroke-width:3;stroke-linecap:round;stroke-linejoin:round;stroke-miterlimit:10;}
	.st5{fill:#2196F3;}
	.st6{fill:#FFFFFF;}
</style>
<g id="diaper.svg">
</g>
<g id="story.svg">
</g>
<g id="toothbrush.svg">
</g>
<g id="food-bottle.svg">
</g>
<g id="sleep.svg">
</g>
<g id="nap.svg">
</g>
<g id="food-oatmeal.svg">
</g>
<g id="pajamas.svg">
</g>
<g id="food-meal.svg">
</g>
<g id="food-sandwich.svg">
</g>
<g id="food-fruit.svg">
	<g>
		<path class="st3" d="M61.6,26h-48c0.1,13.8,11,24.4,24.3,24.3C51.1,50.2,61.8,39.8,61.6,26z M22,37.7c-1.2-2.3-2.4-4.5-3.2-6.9
			c-0.2-0.7,0.7-2.5,1.2-2.6c4.8-0.3,9.6-0.3,14.4-0.4c0.1,0.3,0.2,0.6,0.3,0.9c-3.1,3.2-6.1,6.3-9.2,9.5
			C24.1,39.6,22.8,39.4,22,37.7z M34.1,45.3c-2.3-0.8-4.6-1.6-6.8-2.7c-0.6-0.3-1.1-2.3-0.7-2.7c3-3.4,6.2-6.5,9.3-9.8
			c0.3,0.1,0.6,0.3,0.9,0.4c0.1,4.3,0.2,8.6,0.2,12.9C37,45.4,35.8,45.9,34.1,45.3z M48.8,42.2c-1.6,0.8-3.5,1.1-5.2,1.6
			c-1.2,0.5-2.4,1-3.7,1.5c-0.4-1.1-1-2.2-1-3.3c0-2.2,0.4-4.4,0.6-6.6c-0.3-1.6-0.6-3.3-0.8-4.9c0.3-0.2,0.6-0.3,1-0.5
			c3.3,3.2,6.6,6.3,9.7,9.6C49.7,40,49.3,41.9,48.8,42.2z M53.5,37.4c-0.3,0.6-2.5,1-3,0.5c-3.3-2.9-6.4-6.1-9.5-9.2
			c0.1-0.3,0.2-0.7,0.3-1c4.7-0.1,9.4-0.2,14.1-0.1c0.6,0,1.7,1.6,1.5,2.1C56,32.5,54.9,35,53.5,37.4z"/>
	</g>
</g>
<g id="drops.svg">
</g>
<g id="state-awake.svg">
</g>
<g id="favicon.png">
</g>
<g id="Layer_15">
</g>
<g id="state-asleep.svg">
</g>
<g id="food-snack.svg">
</g>
</svg>
