<svg xmlns="http://www.w3.org/2000/svg" viewBox="0 0 72 72"><style>.st0{fill:#4caf50}.st1{fill:none}.st2{fill:#03a9f4}.st3{fill:#ff5722}.st4{fill:none;stroke:#03a9f4;stroke-width:3;stroke-linecap:round;stroke-linejoin:round;stroke-miterlimit:10}.st5{fill:#2196f3}.st6{fill:#fff}</style><path class="st3" d="M61.6 26h-48c.1 13.8 11 24.4 24.3 24.3 13.2-.1 23.9-10.5 23.7-24.3zM22 37.7c-1.2-2.3-2.4-4.5-3.2-6.9-.2-.7.7-2.5 1.2-2.6 4.8-.3 9.6-.3 14.4-.4l.3.9-9.2 9.5c-1.4 1.4-2.7 1.2-3.5-.5zm12.1 7.6c-2.3-.8-4.6-1.6-6.8-2.7-.6-.3-1.1-2.3-.7-2.7 3-3.4 6.2-6.5 9.3-9.8.3.1.6.3.9.4.1 4.3.2 8.6.2 12.9 0 2-1.2 2.5-2.9 1.9zm14.7-3.1c-1.6.8-3.5 1.1-5.2 1.6-1.2.5-2.4 1-3.7 1.5-.4-1.1-1-2.2-1-3.3 0-2.2.4-4.4.6-6.6-.3-1.6-.6-3.3-.8-4.9.3-.2.6-.3 1-.5 3.3 3.2 6.6 6.3 9.7 9.6.3.4-.1 2.3-.6 2.6zm4.7-4.8c-.3.6-2.5 1-3 .5-3.3-2.9-6.4-6.1-9.5-9.2.1-.3.2-.7.3-1 4.7-.1 9.4-.2 14.1-.1.6 0 1.7 1.6 1.5 2.1-.9 2.8-2 5.3-3.4 7.7z" id="food-fruit.svg"/></svg>