<?xml version="1.0" encoding="utf-8"?>
<!-- Generator: Adobe Illustrator 18.1.1, SVG Export Plug-In . SVG Version: 6.00 Build 0)  -->
<!DOCTYPE svg PUBLIC "-//W3C//DTD SVG 1.1//EN" "http://www.w3.org/Graphics/SVG/1.1/DTD/svg11.dtd">
<svg version="1.1" id="Layer_1" xmlns="http://www.w3.org/2000/svg" xmlns:xlink="http://www.w3.org/1999/xlink" x="0px" y="0px"
	 viewBox="0 0 72 72" enable-background="new 0 0 72 72" xml:space="preserve">
<path fill="#FF5722" d="M60.1,28.9C60.1,28.9,60.1,28.9,60.1,28.9C60.1,28.9,60.1,28.9,60.1,28.9c-0.1-1.9-2.3-3.2-5.5-4.1l4.8-4.8
	c0.8-0.8,0.8-2.1,0-2.9c-0.8-0.8-2.1-0.8-2.9,0l-6.7,6.7c-6.2-1-13.1-1-13.6-1c-1,0-23.9,0.1-23.9,6.1c0,0,0,0,0,0c0,0-0.1,0-0.1,0
	c0,0.3-0.1,0.7-0.1,1L15.9,42c0,4.2,5.1,7.7,9.1,7.7h23c4,0,8.5-3.4,8.5-7.7l3.7-12.2C60.2,29.5,60.2,29.2,60.1,28.9z M18.9,29.6
	c0.8-1.1,7-2.8,17.3-2.8c3.6,0,6.7,0.2,9.2,0.5l-5,5c-1.3,0.1-2.7,0.1-4.2,0.1C25.8,32.4,19.6,30.7,18.9,29.6z M45.7,31.8l3.8-3.8
	c2.3,0.5,3.7,1.1,4,1.6C53,30.3,50.3,31.2,45.7,31.8z"/>
<rect fill="none" width="72" height="72"/>
<g>
</g>
<g>
</g>
<g>
</g>
<g>
</g>
<g>
</g>
<g>
</g>
<g>
</g>
<g>
</g>
<g>
</g>
<g>
</g>
<g>
</g>
<g>
</g>
<g>
</g>
<g>
</g>
<g>
</g>
</svg>
