<?xml version="1.0" encoding="utf-8"?>
<!-- Generator: Adobe Illustrator 18.1.1, SVG Export Plug-In . SVG Version: 6.00 Build 0)  -->
<!DOCTYPE svg PUBLIC "-//W3C//DTD SVG 1.1//EN" "http://www.w3.org/Graphics/SVG/1.1/DTD/svg11.dtd">
<svg version="1.1" id="Layer_1" xmlns="http://www.w3.org/2000/svg" xmlns:xlink="http://www.w3.org/1999/xlink" x="0px" y="0px"
	 viewBox="0 0 72 72" enable-background="new 0 0 72 72" xml:space="preserve">
<g>
	<path fill="#FF5722" d="M52,41.1L34.6,52.9c-0.7,0.5-1.5,0.8-2.4,0.8c-1,0-2.1-0.4-2.9-1.1L12.6,38c-0.3,0.5-0.2,1.1-0.2,2
		c0,0.6,0.3,1.1,0.7,1.4l17.2,15.1c0.7,0.7,2.7,0.6,3.5,0l17.5-11.9c1,0.3,2.8,0.7,4.3,0.5c2-0.3,4.5-1.4,5.2-3.8
		c0.1-0.3,0.4-1.2,0.4-2.2c-1.5,1.3-3.4,2-5.1,2.2C54.7,41.6,53.1,41.4,52,41.1z"/>
	<path fill="#FF5722" d="M13.3,35l16.8,14.6c0.7,0.7,3,1.6,4.8-0.1l16.6-11.3c1,0.3,2.8,0.7,4.3,0.5c2-0.3,4.5-1.4,5.2-3.8
		c0.3-0.8,1.5-4.4-2.6-8c-1.5-1.2-14.1-11.8-21.3-11.8c-1.6,0-5.1,0.6-5.5,5.6L13.3,30.9c-0.9,0.7-0.8,1.2-0.7,2.6
		C12.6,34.2,12.9,34.7,13.3,35z M19.5,32.6c0-0.5,0.3-0.9,0.7-1.1l14-7.8c0.5-0.3,0.8-0.8,0.8-1.3c0-3.1,1.4-3.1,2.2-3.1
		c4.8,0,14.5,7.4,17.9,10.3c1.2,1.1,1.8,2.1,1.6,2.8c-0.2,0.7-1.3,1.3-2.4,1.5c-1.4,0.2-3.3-0.5-3.3-0.5c-0.2-0.1-0.4-0.1-0.5-0.1
		c-0.3,0-0.6,0.1-0.8,0.3L34,43.9c-0.8,0.6-1.9,0.5-2.7-0.2L20,33.8C19.6,33.5,19.4,33,19.5,32.6z"/>
	<ellipse fill="#FF5722" cx="26.6" cy="32.2" rx="1.6" ry="1.2"/>
	<ellipse fill="#FF5722" cx="35.5" cy="37.6" rx="1.6" ry="1.2"/>
	<ellipse fill="#FF5722" cx="39" cy="25.1" rx="1.6" ry="1.2"/>
	<ellipse fill="#FF5722" cx="46.1" cy="28.7" rx="1.4" ry="1.1"/>
	<ellipse fill="#FF5722" cx="37.3" cy="30.5" rx="1.4" ry="1.1"/>
</g>
<rect fill="none" width="72" height="72"/>
<g>
</g>
<g>
</g>
<g>
</g>
<g>
</g>
<g>
</g>
<g>
</g>
<g>
</g>
<g>
</g>
<g>
</g>
<g>
</g>
<g>
</g>
<g>
</g>
<g>
</g>
<g>
</g>
<g>
</g>
</svg>
