<svg xmlns="http://www.w3.org/2000/svg" viewBox="0 0 72 72"><style>.st0{fill:#4caf50}.st1{fill:none}.st2{fill:#03a9f4}.st3{fill:#ff5722}.st4{fill:none;stroke:#03a9f4;stroke-width:3;stroke-linecap:round;stroke-linejoin:round;stroke-miterlimit:10}.st5{fill:#2196f3}.st6{fill:#fff}</style><path class="st3" d="M53 18c-9.4-9.4-24.6-9.4-34 0-9.4 9.4-9.4 24.6 0 34 9.4 9.4 24.6 9.4 34 0 9.3-9.4 9.3-24.6 0-34zm-9.2 17.3c-2.7 2.5-6.6.7-6.6.7l-12 12s-2.7.3-2.7-2.7l12-12c-1-2.5-2-4 .5-6.8l8.2-8.2 1.3 1.3-7.3 8.6 1.6 1.6 8.3-7.9 1.3 1.3-7.9 8.3 1.8 1.8 8.4-7.5 1.4 1.4-8.3 8.1z" id="food-meal.svg"/></svg>