<?xml version="1.0" encoding="utf-8"?>
<!-- Generator: Adobe Illustrator 18.1.1, SVG Export Plug-In . SVG Version: 6.00 Build 0)  -->
<!DOCTYPE svg PUBLIC "-//W3C//DTD SVG 1.1//EN" "http://www.w3.org/Graphics/SVG/1.1/DTD/svg11.dtd">
<svg version="1.1" id="Layer_1" xmlns="http://www.w3.org/2000/svg" xmlns:xlink="http://www.w3.org/1999/xlink" x="0px" y="0px"
	 viewBox="0 0 72 72" enable-background="new 0 0 72 72" xml:space="preserve">
<rect fill="none" width="72" height="72"/>
<g>
	<g>
		<g>
			<path fill="#03A9F4" d="M58.2,25.1c-3.8-8.1-12.1-13.8-21.7-13.8c-9.6,0-17.9,5.6-21.7,13.8C9.9,25.7,6,29.9,6,35
				c0,5,3.7,9.2,8.5,9.9c3.7,8.5,12.2,14.4,22,14.4c9.9,0,18.3-5.9,22-14.5C63.3,44.1,67,40,67,35C67,29.9,63.2,25.7,58.2,25.1z
				 M57,41c-0.4,0-0.9,0-1.3-0.1c-2.4,8.3-10.1,14.5-19.2,14.5c-9.1,0-16.8-6.1-19.2-14.5C16.9,40.9,16.5,41,16,41c-3.3,0-6-2.7-6-6
				s2.7-6,6-6c0.5,0,1,0.1,1.5,0.2c2.6-8,10.1-13.9,19-13.9c8.9,0,16.4,5.8,19,13.9C56,29.1,56.5,29,57,29c3.3,0,6,2.7,6,6
				S60.3,41,57,41z"/>
		</g>
	</g>
	<g>
		<g>
			<path fill="#03A9F4" d="M35.3,35.5c0-0.8-0.7-1.5-1.5-1.5s-1.5,0.7-1.5,1.5c0,1.2-1,2.3-2.3,2.3s-2.3-1-2.3-2.3
				c0-0.8-0.7-1.5-1.5-1.5s-1.5,0.7-1.5,1.5c0,0.1,0,0.2,0,0.3c0.2,2.8,2.4,4.9,5.2,4.9s5.1-2.2,5.2-4.9
				C35.2,35.7,35.3,35.6,35.3,35.5z"/>
		</g>
	</g>
	<g>
		<g>
			<path fill="#03A9F4" d="M47.8,35.5c0-0.8-0.7-1.5-1.5-1.5s-1.5,0.7-1.5,1.5c0,1.2-1,2.3-2.3,2.3s-2.3-1-2.3-2.3
				c0-0.8-0.7-1.5-1.5-1.5s-1.5,0.7-1.5,1.5c0,0.1,0,0.2,0,0.3c0.2,2.8,2.4,4.9,5.2,4.9s5.1-2.2,5.2-4.9
				C47.7,35.7,47.8,35.6,47.8,35.5z"/>
		</g>
	</g>
</g>
<g>
</g>
<g>
</g>
<g>
</g>
<g>
</g>
<g>
</g>
<g>
</g>
<g>
</g>
<g>
</g>
<g>
</g>
<g>
</g>
<g>
</g>
<g>
</g>
<g>
</g>
<g>
</g>
<g>
</g>
</svg>
