<svg xmlns="http://www.w3.org/2000/svg" viewBox="0 0 72 72"><path fill="none" d="M0 0h72v72H0z"/><path fill="#03A9F4" d="M58.2 25.1C54.4 17 46.1 11.3 36.5 11.3s-17.9 5.6-21.7 13.8C9.9 25.7 6 29.9 6 35c0 5 3.7 9.2 8.5 9.9 3.7 8.5 12.2 14.4 22 14.4 9.9 0 18.3-5.9 22-14.5C63.3 44.1 67 40 67 35c0-5.1-3.8-9.3-8.8-9.9zM57 41c-.4 0-.9 0-1.3-.1-2.4 8.3-10.1 14.5-19.2 14.5s-16.8-6.1-19.2-14.5c-.4 0-.8.1-1.3.1-3.3 0-6-2.7-6-6s2.7-6 6-6c.5 0 1 .1 1.5.2 2.6-8 10.1-13.9 19-13.9s16.4 5.8 19 13.9c.5-.1 1-.2 1.5-.2 3.3 0 6 2.7 6 6s-2.7 6-6 6z"/><path fill="#03A9F4" d="M35.3 35.5c0-.8-.7-1.5-1.5-1.5s-1.5.7-1.5 1.5c0 1.2-1 2.3-2.3 2.3s-2.3-1-2.3-2.3c0-.8-.7-1.5-1.5-1.5s-1.5.7-1.5 1.5v.3c.2 2.8 2.4 4.9 5.2 4.9s5.1-2.2 5.2-4.9c.1-.1.2-.2.2-.3zM47.8 35.5c0-.8-.7-1.5-1.5-1.5s-1.5.7-1.5 1.5c0 1.2-1 2.3-2.3 2.3s-2.3-1-2.3-2.3c0-.8-.7-1.5-1.5-1.5s-1.5.7-1.5 1.5v.3c.2 2.8 2.4 4.9 5.2 4.9s5.1-2.2 5.2-4.9c.1-.1.2-.2.2-.3z"/></svg>