<?xml version="1.0" encoding="utf-8"?>
<!-- Generator: Adobe Illustrator 18.1.1, SVG Export Plug-In . SVG Version: 6.00 Build 0)  -->
<!DOCTYPE svg PUBLIC "-//W3C//DTD SVG 1.1//EN" "http://www.w3.org/Graphics/SVG/1.1/DTD/svg11.dtd">
<svg version="1.1" id="Layer_1" xmlns="http://www.w3.org/2000/svg" xmlns:xlink="http://www.w3.org/1999/xlink" x="0px" y="0px"
	 viewBox="0 0 72 72" enable-background="new 0 0 72 72" xml:space="preserve">
<g>
	<path fill="#4CAF50" d="M56.8,33c1,8.3,1.8,16.7,3,25c0.4,3.1-0.4,4.3-3.6,4.6c-7.4,0.8-7.4,0.9-9.2-6.3c-0.5-2.2-1.1-4.4-2.4-6.6
		c-0.9,3.8-1.9,7.5-2.6,11.3c-0.4,1.9-1.2,2.6-3,2.2c-2.9-0.7-6.3,0.4-8.8-2.2c0.4-0.6,0.5-1.4,0.2-1.7c-0.8-1.2,2.5-1.8,0.3-3
		c0.2-7.4,1.3-14.6,2.4-21.9c0.3-1.9,1.4-1.6,2.6-1.7c4.8,0,9.7,0,14.5-0.1C52.4,32.5,54.6,31.9,56.8,33z"/>
	<path fill="#4CAF50" d="M20.3,34.7c0.1-2.4,0.1-4.8,0.2-7.1c0.5-2.9,0.4-5.8,0-8.7c0-0.1-0.2-0.2-0.3-0.2c-0.2-0.1-0.4,0-0.6,0.2
		c0,2-1.4,3.4-2.5,4.7c-2.2,2.7-3.8,0-5.5-1c-1.5-0.9-2.9-1.9-1-3.9c2.5-2.7,4.9-5.5,7.1-8.5c1.4-1.9,3.4-1.5,5.2-2.2
		c3-1.2,3,1.2,4,2.7c2.1,3.3,6.8,3.1,9,0c0.7-1,0.1-3.3,2.1-2.8c2.2,0.5,4.8-0.2,6.5,2c0.4,0.6,1,1,1.5,1.5c1.9,1.5,3.6,3,4.5,5.4
		c3.1,4.4,2.8,5.4-1.9,7.6c-2.2,1.1-3.4,0.6-4-1.8c-0.6-1.5,1.1-0.6,1.3-1.3c-0.6-0.5-1.4,0.2-2-0.2c-0.3-0.7-0.6-1.3-0.9-2
		c-1.9,1.1-0.8,2.8-0.8,4.3c0.1,0.7,0.2,1.5,0.2,2.2c0.4,2,0.7,4-0.2,5.9c-1.7,0-3.4,0-5.2-0.1c-5.8-0.1-6.1-0.1-6.5,5.6
		c-0.2,3.2-1.6,3.4-3.9,3.1c-1.7-0.2-3.4-0.3-5.1-0.5C19.7,38.4,20.2,36.5,20.3,34.7z"/>
</g>
<rect fill="none" width="72" height="72"/>
<g>
</g>
<g>
</g>
<g>
</g>
<g>
</g>
<g>
</g>
<g>
</g>
<g>
</g>
<g>
</g>
<g>
</g>
<g>
</g>
<g>
</g>
<g>
</g>
<g>
</g>
<g>
</g>
<g>
</g>
</svg>
