<svg xmlns="http://www.w3.org/2000/svg" viewBox="0 0 72 72"><path fill="none" d="M0 0h72v72H0z"/><path fill="#03A9F4" d="M59.5 27.8H59C56 18.1 46.9 11 36.1 11c-10.8 0-20 7.2-23 17-.5-.1-1.1-.2-1.6-.2-4 0-7.2 3.2-7.2 7.2s3.2 7.2 7.2 7.2c.6 0 1.1-.1 1.6-.2 3 9.8 12.1 17 23 17C46.9 59 56 51.9 59 42.2h.5c4 0 7.2-3.2 7.2-7.2s-3.2-7.2-7.2-7.2zM30 40.5c-2.8 0-5-2.2-5-5 0-.7.6-1.3 1.3-1.3s1.3.6 1.3 1.3c0 1.4 1.1 2.5 2.5 2.5s2.5-1.1 2.5-2.5c0-.7.6-1.3 1.3-1.3s1.3.6 1.3 1.3c-.2 2.8-2.4 5-5.2 5zm12.5 0c-2.8 0-5-2.2-5-5 0-.7.6-1.3 1.3-1.3s1.3.6 1.3 1.3c0 1.4 1.1 2.5 2.5 2.5s2.5-1.1 2.5-2.5c0-.7.6-1.3 1.3-1.3s1.3.6 1.3 1.3c-.2 2.8-2.4 5-5.2 5z"/></svg>