<?xml version="1.0" encoding="utf-8"?>
<!-- Generator: Adobe Illustrator 18.1.1, SVG Export Plug-In . SVG Version: 6.00 Build 0)  -->
<!DOCTYPE svg PUBLIC "-//W3C//DTD SVG 1.1//EN" "http://www.w3.org/Graphics/SVG/1.1/DTD/svg11.dtd">
<svg version="1.1" id="Layer_1" xmlns="http://www.w3.org/2000/svg" xmlns:xlink="http://www.w3.org/1999/xlink" x="0px" y="0px"
	 viewBox="0 0 72 72" enable-background="new 0 0 72 72" xml:space="preserve">
<rect fill="none" width="72" height="72"/>
<g>
	<g>
		<path fill="#03A9F4" d="M59.5,27.8c-0.2,0-0.3,0-0.5,0C56,18.1,46.9,11,36.1,11c-10.8,0-20,7.2-23,17c-0.5-0.1-1.1-0.2-1.6-0.2
			c-4,0-7.2,3.2-7.2,7.2s3.2,7.2,7.2,7.2c0.6,0,1.1-0.1,1.6-0.2c3,9.8,12.1,17,23,17C46.9,59,56,51.9,59,42.2c0.2,0,0.3,0,0.5,0
			c4,0,7.2-3.2,7.2-7.2S63.5,27.8,59.5,27.8z M30,40.5c-2.8,0-5-2.2-5-5c0-0.7,0.6-1.3,1.3-1.3s1.3,0.6,1.3,1.3
			c0,1.4,1.1,2.5,2.5,2.5s2.5-1.1,2.5-2.5c0-0.7,0.6-1.3,1.3-1.3s1.3,0.6,1.3,1.3C35,38.3,32.8,40.5,30,40.5z M42.5,40.5
			c-2.8,0-5-2.2-5-5c0-0.7,0.6-1.3,1.3-1.3s1.3,0.6,1.3,1.3c0,1.4,1.1,2.5,2.5,2.5s2.5-1.1,2.5-2.5c0-0.7,0.6-1.3,1.3-1.3
			s1.3,0.6,1.3,1.3C47.5,38.3,45.3,40.5,42.5,40.5z"/>
	</g>
</g>
<g>
</g>
<g>
</g>
<g>
</g>
<g>
</g>
<g>
</g>
<g>
</g>
<g>
</g>
<g>
</g>
<g>
</g>
<g>
</g>
<g>
</g>
<g>
</g>
<g>
</g>
<g>
</g>
<g>
</g>
</svg>
