<svg xmlns="http://www.w3.org/2000/svg" viewBox="0 0 96 96"><path fill="none" d="M0 0h96v96H0z"/><path fill="#03A9F4" d="M77.6 33.4C72.5 22.6 61.4 15 48.7 15c-12.8 0-23.8 7.5-28.9 18.3C13.1 34.2 8 39.8 8 46.7c0 6.7 4.9 12.2 11.3 13.2 4.9 11.3 16.2 19.3 29.4 19.3 13.1 0 24.4-7.9 29.4-19.3 6.4-1 11.3-6.5 11.3-13.2-.1-6.8-5.2-12.4-11.8-13.3zm-1.5 23.3c-4 11.3-14.7 19.4-27.4 19.4S25.3 68 21.3 56.7c-5.5 0-10-4.5-10-10s4.5-10 10-10h.3c4.2-10.9 14.7-18.6 27.1-18.6 12.3 0 22.9 7.7 27.1 18.6h.2c5.5 0 10 4.5 10 10s-4.4 9.9-9.9 10z"/><path fill="none" stroke="#03A9F4" stroke-width="3" stroke-linecap="round" stroke-linejoin="round" stroke-miterlimit="10" d="M45 48.3c0 2.8-2.2 5-5 5s-5-2.2-5-5M61 48.3c0 2.8-2.2 5-5 5s-5-2.2-5-5"/></svg>