<?xml version="1.0" encoding="utf-8"?>
<!-- Generator: Adobe Illustrator 18.1.1, SVG Export Plug-In . SVG Version: 6.00 Build 0)  -->
<!DOCTYPE svg PUBLIC "-//W3C//DTD SVG 1.1//EN" "http://www.w3.org/Graphics/SVG/1.1/DTD/svg11.dtd">
<svg version="1.1" id="Layer_1" xmlns="http://www.w3.org/2000/svg" xmlns:xlink="http://www.w3.org/1999/xlink" x="0px" y="0px"
	 viewBox="0 0 96 96" enable-background="new 0 0 96 96" xml:space="preserve">
<rect x="0" fill="none" width="96" height="96"/>
<g>
	<g>
		<g>
			<path fill="#03A9F4" d="M77.6,33.4c-5.1-10.8-16.2-18.4-28.9-18.4c-12.8,0-23.8,7.5-28.9,18.3C13.1,34.2,8,39.8,8,46.7
				c0,6.7,4.9,12.2,11.3,13.2c4.9,11.3,16.2,19.3,29.4,19.3c13.1,0,24.4-7.9,29.4-19.3c6.4-1,11.3-6.5,11.3-13.2
				C89.3,39.9,84.2,34.3,77.6,33.4z M76.1,56.7c-4,11.3-14.7,19.4-27.4,19.4C36,76.1,25.3,68,21.3,56.7c-5.5,0-10-4.5-10-10
				c0-5.5,4.5-10,10-10c0.1,0,0.2,0,0.3,0c4.2-10.9,14.7-18.6,27.1-18.6c12.3,0,22.9,7.7,27.1,18.6c0.1,0,0.2,0,0.2,0
				c5.5,0,10,4.5,10,10C86,52.2,81.6,56.6,76.1,56.7z"/>
		</g>
	</g>
	<path fill="none" stroke="#03A9F4" stroke-width="3" stroke-linecap="round" stroke-linejoin="round" stroke-miterlimit="10" d="
		M45,48.3c0,2.8-2.2,5-5,5s-5-2.2-5-5"/>
	<path fill="none" stroke="#03A9F4" stroke-width="3" stroke-linecap="round" stroke-linejoin="round" stroke-miterlimit="10" d="
		M61,48.3c0,2.8-2.2,5-5,5s-5-2.2-5-5"/>
</g>
<g>
</g>
<g>
</g>
<g>
</g>
<g>
</g>
<g>
</g>
<g>
</g>
<g>
</g>
<g>
</g>
<g>
</g>
<g>
</g>
<g>
</g>
<g>
</g>
<g>
</g>
<g>
</g>
<g>
</g>
</svg>
