<?xml version="1.0" encoding="utf-8"?>
<!-- Generator: Adobe Illustrator 18.1.1, SVG Export Plug-In . SVG Version: 6.00 Build 0)  -->
<!DOCTYPE svg PUBLIC "-//W3C//DTD SVG 1.1//EN" "http://www.w3.org/Graphics/SVG/1.1/DTD/svg11.dtd">
<svg version="1.1" id="Layer_1" xmlns="http://www.w3.org/2000/svg" xmlns:xlink="http://www.w3.org/1999/xlink" x="0px" y="0px"
	 viewBox="0 0 72 72" enable-background="new 0 0 72 72" xml:space="preserve">
<path fill="#03A9F4" d="M58.9,56.9c-6.1-6-12.2-11.9-18.2-17.9c-0.4-0.4-0.7-0.8-1.1-1.1c0.5-0.5,1-1.1,1.5-1.6
	c2.5-2.5,2.5-5.9,0-8.4c-4.1-4-8.3-8-12.4-12.1c-2.4-2.4-6.1-2.3-8.3,0c-0.6,0.6-1.2,1.3-1.8,1.9c-2.2-1-4,0-4.7,1.5
	c-0.6,1.3-0.3,2.7,0.8,3.9C25.4,33.4,36,43.8,46.6,54.2c2.5,2.5,5.1,5,7.6,7.5c1.4,1.4,3.6,1.4,5-0.1C60.5,60.2,60.4,58.3,58.9,56.9
	z M20.1,18.9c0.8-0.7,1.5-1.5,2.3-2.1c1.1-0.9,3-1,4-0.3c-0.7,0.7-1.3,1.4-2,2.1c-0.1,0.2-0.3,0.3-0.4,0.4c-0.4,0.4-0.4,1,0,1.4
	c0.4,0.4,1,0.4,1.4,0c0.7-0.7,1.4-1.3,2.1-2c0.2-0.2,0.3-0.4,0.6-0.7c0.4,0.5,0.8,0.8,1.1,1.2c-0.5,0.5-1,1-1.5,1.5
	c-0.4,0.4-0.8,0.7-1.1,1.1c-0.4,0.4-0.4,0.9-0.1,1.3c0.4,0.4,1,0.5,1.4,0.1c0.8-0.8,1.6-1.5,2.4-2.3c0.1-0.1,0.2-0.2,0.4-0.3
	c0.3,0.4,0.7,0.7,0.9,1c-0.7,0.8-1.5,1.6-2.3,2.4c-0.6,0.6-0.7,1.2-0.3,1.6c0.5,0.5,1,0.4,1.6-0.2c0.8-0.8,1.5-1.6,2.3-2.5
	c0.4,0.5,0.8,0.9,1.2,1.4c-0.8,0.7-1.6,1.5-2.5,2.3c-0.5,0.5-0.6,1-0.2,1.5c0.4,0.4,1,0.4,1.5-0.1c0.8-0.8,1.7-1.6,2.5-2.5
	c0,0,0,0,0.1,0c0.3,0.3,0.6,0.7,0.9,1c-0.9,0.9-1.7,1.8-2.5,2.7c-0.3,0.3-0.4,0.7-0.2,1.1c0.2,0.4,0.6,0.6,1.1,0.5
	c0.2-0.1,0.5-0.2,0.6-0.4c0.8-0.8,1.6-1.7,2.4-2.6c0.5,0.5,0.8,0.8,1.2,1.2c-0.9,0.9-1.7,1.8-2.6,2.7c-0.6,0.6-0.3,1.4,0.4,1.6
	c0.4,0.1,0.7,0,1-0.3c0.7-0.7,1.4-1.4,2.1-2.1c0.1-0.1,0.2-0.2,0.4-0.4c0.5,0.7,0.6,1.5,0.5,2.3c-0.1,0.7-0.4,1.4-0.9,1.9
	c-0.6,0.7-1.2,1.3-1.9,2C32.1,30.6,26.1,24.7,20.1,18.9z"/>
<rect fill="none" width="72" height="72"/>
<g>
</g>
<g>
</g>
<g>
</g>
<g>
</g>
<g>
</g>
<g>
</g>
<g>
</g>
<g>
</g>
<g>
</g>
<g>
</g>
<g>
</g>
<g>
</g>
<g>
</g>
<g>
</g>
<g>
</g>
</svg>
