<svg xmlns="http://www.w3.org/2000/svg" viewBox="0 0 72 72"><path fill="#03A9F4" d="M58.9 56.9C52.8 50.9 46.7 45 40.7 39c-.4-.4-.7-.8-1.1-1.1.5-.5 1-1.1 1.5-1.6 2.5-2.5 2.5-5.9 0-8.4-4.1-4-8.3-8-12.4-12.1-2.4-2.4-6.1-2.3-8.3 0-.6.6-1.2 1.3-1.8 1.9-2.2-1-4 0-4.7 1.5-.6 1.3-.3 2.7.8 3.9C25.4 33.4 36 43.8 46.6 54.2c2.5 2.5 5.1 5 7.6 7.5 1.4 1.4 3.6 1.4 5-.1 1.3-1.4 1.2-3.3-.3-4.7zm-38.8-38c.8-.7 1.5-1.5 2.3-2.1 1.1-.9 3-1 4-.3-.7.7-1.3 1.4-2 2.1-.1.2-.3.3-.4.4-.4.4-.4 1 0 1.4.4.4 1 .4 1.4 0 .7-.7 1.4-1.3 2.1-2 .2-.2.3-.4.6-.7.4.5.8.8 1.1 1.2l-1.5 1.5c-.4.4-.8.7-1.1 1.1-.4.4-.4.9-.1 1.3.4.4 1 .5 1.4.1.8-.8 1.6-1.5 2.4-2.3.1-.1.2-.2.4-.3.3.4.7.7.9 1-.7.8-1.5 1.6-2.3 2.4-.6.6-.7 1.2-.3 1.6.5.5 1 .4 1.6-.2.8-.8 1.5-1.6 2.3-2.5.4.5.8.9 1.2 1.4-.8.7-1.6 1.5-2.5 2.3-.5.5-.6 1-.2 1.5.4.4 1 .4 1.5-.1.8-.8 1.7-1.6 2.5-2.5h.1c.3.3.6.7.9 1-.9.9-1.7 1.8-2.5 2.7-.3.3-.4.7-.2 1.1.2.4.6.6 1.1.5.2-.1.5-.2.6-.4.8-.8 1.6-1.7 2.4-2.6l1.2 1.2c-.9.9-1.7 1.8-2.6 2.7-.6.6-.3 1.4.4 1.6.4.1.7 0 1-.3l2.1-2.1.4-.4c.5.7.6 1.5.5 2.3-.1.7-.4 1.4-.9 1.9-.6.7-1.2 1.3-1.9 2-5.9-5.8-11.9-11.7-17.9-17.5z"/><path fill="none" d="M0 0h72v72H0z"/></svg>